<?xml version="1.0" encoding="utf-8"?>
<!-- Generator: Adobe Illustrator 22.1.0, SVG Export Plug-In . SVG Version: 6.00 Build 0)  -->
<svg version="1.1" id="fda871d6-4a4f-49fc-88be-f761f3bd5c82"
	 xmlns="http://www.w3.org/2000/svg" xmlns:xlink="http://www.w3.org/1999/xlink" x="0px" y="0px" viewBox="0 0 965.4 690"
	 style="enable-background:new 0 0 965.4 690;" xml:space="preserve">
<style type="text/css">
	.st0{opacity:0.1;fill:#7692D8;}
	.st1{fill:#3D4D59;}
	.st2{opacity:0.1;fill:#7692D8;enable-background:new    ;}
	.st3{fill:#7692D8;}
	.st4{opacity:0.1;enable-background:new    ;}
	.st5{opacity:0.3;fill:#7692D8;enable-background:new    ;}
	.st6{fill:#FFBEBF;}
	.st7{fill:#2F2E41;}
	.st8{fill:#575A89;}
	.st9{fill:#A8A8A8;}
	.st10{opacity:0.2;enable-background:new    ;}
</style>
<title>online page</title>
<path class="st0" d="M103.4,576.3c0,38.9-23.1,52.5-51.7,52.5S0,615.2,0,576.3s51.7-88.4,51.7-88.4S103.4,537.4,103.4,576.3z"/>
<polygon class="st1" points="49.8,622.9 50.3,590.3 72.3,550 50.4,585.2 50.6,570.5 65.8,541.4 50.7,566.7 50.7,566.7 51.1,540.3 
	67.4,517.1 51.2,536.2 51.5,487.9 49.8,551.8 49.9,549.2 33.4,523.9 49.7,554.3 48.1,583.7 48.1,582.9 29,556.3 48,585.7 
	47.8,589.3 47.8,589.4 47.8,589.7 43.9,664.3 49.1,664.3 49.7,625.8 68.7,596.5 "/>
<path class="st2" d="M510.8,76.3c135.7,108.1,158,305.7,49.9,441.4S123.3,741,119.3,567.6C115.2,393,25.4,229.5,69.4,126.2
	C137.3-33.4,375.1-31.8,510.8,76.3z"/>
<ellipse class="st1" cx="150.4" cy="666" rx="144" ry="24"/>
<ellipse class="st1" cx="886.8" cy="658" rx="70.9" ry="11.8"/>
<rect x="143.4" y="160" class="st1" width="822" height="444"/>
<rect x="143.4" y="124" class="st1" width="822" height="41"/>
<circle class="st3" cx="163.4" cy="142" r="7"/>
<circle class="st3" cx="183.4" cy="142" r="7"/>
<circle class="st3" cx="203.4" cy="142" r="7"/>
<rect x="143.4" y="160" class="st4" width="822" height="5"/>
<rect x="190.9" y="230.5" class="st5" width="162" height="173"/>
<rect x="201.9" y="218.5" class="st3" width="162" height="173"/>
<rect x="784.9" y="227.7" class="st5" width="124.5" height="133"/>
<rect x="793.3" y="218.5" class="st3" width="124.5" height="133"/>
<rect x="784.9" y="412.5" class="st5" width="124.5" height="133"/>
<rect x="793.3" y="403.3" class="st3" width="124.5" height="133"/>
<rect x="420.9" y="218.5" class="st3" width="309" height="12"/>
<rect x="420.9" y="253.5" class="st3" width="309" height="12"/>
<rect x="420.9" y="288.5" class="st3" width="309" height="12"/>
<rect x="420.9" y="323.5" class="st3" width="309" height="12"/>
<rect x="420.9" y="358.5" class="st3" width="309" height="12"/>
<rect x="420.9" y="393.5" class="st3" width="309" height="12"/>
<rect x="420.9" y="428.5" class="st3" width="309" height="12"/>
<rect x="420.9" y="463.5" class="st3" width="309" height="12"/>
<rect x="420.9" y="498.5" class="st3" width="309" height="12"/>
<rect x="420.9" y="533.5" class="st3" width="309" height="12"/>
<circle class="st6" cx="126.3" cy="291.4" r="21.5"/>
<path class="st6" d="M112.4,301.5c0,0,0,22.8-3.8,25.3s30.4,5.1,30.4,5.1v-29.1L112.4,301.5z"/>
<path class="st6" d="M70.7,428c0,0,24,27.8,29.1,27.8s10.1-19,10.1-19l-24-17.7L70.7,428z"/>
<path class="st6" d="M190.8,302.8l3.8-26.6c0,0,2.5-36.7,10.1-27.8c7.6,8.9,2.5,29.1,2.5,29.1s3.8,29.1,0,32.9
	S190.8,302.8,190.8,302.8z"/>
<path class="st7" d="M169.3,445.7l-68.3-6.3c0,0-8.9,41.7-6.3,58.2s3.8,63.2,3.8,63.2s2.5,84.7,6.3,89.8s16.4,3.8,20.2,6.3
	c3.8,2.5,10.1-5.1,10.1-6.3s-7.6-1.3-3.8-8.9c3.8-7.6-10.1-29.1-6.3-39.2c3.8-10.1,10.1-24,6.3-29.1s2.5-69.6,2.5-69.6
	s31.6,45.5,31.6,65.8s-2.5,67-3.8,72.1s-2.5,6.3,0,10.1s5.1,7.6,3.8,8.9s22.8,0,22.8-7.6s-1.3-7.6,1.3-13.9s3.8-82.2,3.8-82.2
	L169.3,445.7z"/>
<path class="st8" d="M108.6,317.9l-3.8,7.6c0,0-40.5,12.6-41.7,39.2l34.1,56.9c0,0,2.5,3.8,1.3,6.3s-2.5,1.3-1.3,5.1
	s1.3,2.5,1.3,5.1s-3.8,1.3,0,2.5s-1.3,0,12.6,3.8s55.6,2.5,55.6,2.5l-7.6-73.4l7.6-15.2l-10.1-30.4c0,0-6.3-1.3-10.1,1.3
	s-8.9-2.5-8.9-2.5S131.4,317.9,108.6,317.9z"/>
<path class="st8" d="M150.4,329.3l6.3-1.3c0,0,25.3-7.6,26.6-13.9s7.6-13.9,7.6-13.9s20.2-5.1,19,11.4s-6.3,21.5-8.9,24
	s-30.4,22.8-35.4,22.8S150.4,329.3,150.4,329.3z"/>
<path class="st8" d="M65.6,359.7l-2.5,5.1l-1.3,45.5c0,0-7.6,5.1-3.8,7.6s12.6,13.9,15.2,13.9s16.4-6.3,16.4-8.9s-2.5-25.3-2.5-25.3
	L65.6,359.7z"/>
<path class="st7" d="M112.4,650.6c0,0,0,12.6-1.3,15.2s-3.8,15.2,3.8,15.2c4.3,0.1,8.7-0.8,12.6-2.5c0,0,0-7.6,3.8-8.9
	c3.8-1.3,12.6-11.4,8.9-13.9s-11.4-5.1-11.4-5.1H112.4z"/>
<path class="st7" d="M166.8,656.9c0,0-7.6,17.7,0,19s17.7,0,19-2.5s3.8-5.1,6.3-3.8s24-13.9,16.4-16.4c-4.5-1.5-9.4-1.5-13.9,0
	l-7.6-3.8L166.8,656.9z"/>
<path class="st7" d="M129.1,315.1c0.4,0,0.7-0.1,1-0.3c0.5-0.4,0.9-1,1-1.7l2.6-9.2c1-3.5,2.6-7.5,6.1-8.3c0.7,0,1.5-0.2,2.1-0.6
	c0.8-0.7,1.2-1.8,1.2-2.9l1.1-11.8c0.3-3.2,0.6-6.5-0.5-9.5c-1.6-4.4-6.2-7.4-10.8-8.2c-4.7-0.8-9.5,0.1-14,1.5
	c-6.9,2.1-14,5.6-17,12.1c-1.7,3.8-1.8,8.1-1.6,12.3c0.2,4.3,0.8,8.6,2.8,12.4c1.1,2,2.4,3.8,3.8,5.6c2.1,2.8,4.8,8.2,8.3,9.2
	C119,317,125,315.6,129.1,315.1z"/>
<path class="st1" d="M830.1,583.6c0,38,23.9,68.8,53.3,68.8"/>
<path class="st3" d="M883.4,652.4c0-38.5,26.6-69.6,59.5-69.6"/>
<path class="st3" d="M849.4,587c0,36.1,15.2,65.4,34,65.4"/>
<path class="st1" d="M883.4,652.4c0-49.1,30.8-88.9,68.8-88.9"/>
<path class="st9" d="M872.2,652.9c0,0,7.6-0.2,9.8-1.9s11.6-3.6,12.2-1s11.4,12.9,2.8,13s-19.8-1.3-22.1-2.7
	S872.2,652.9,872.2,652.9z"/>
<path class="st10" d="M897.3,662.2c-8.5,0.1-19.8-1.3-22.1-2.7c-1.7-1.1-2.4-4.8-2.7-6.6c-0.2,0-0.3,0-0.3,0s0.5,6.1,2.8,7.5
	s13.6,2.8,22.1,2.7c2.5,0,3.3-0.9,3.3-2.2C900,661.7,899.1,662.1,897.3,662.2z"/>
</svg>
